<?xml version="1.0" encoding="utf-8"?>
<!-- Generator: Adobe Illustrator 17.0.0, SVG Export Plug-In . SVG Version: 6.00 Build 0)  -->
<!DOCTYPE svg PUBLIC "-//W3C//DTD SVG 1.1//EN" "http://www.w3.org/Graphics/SVG/1.1/DTD/svg11.dtd">
<svg version="1.1" id="Layer_1" xmlns="http://www.w3.org/2000/svg" xmlns:xlink="http://www.w3.org/1999/xlink" x="0px" y="0px"
	 width="421.191px" height="97.441px" viewBox="0 0 421.191 97.441" enable-background="new 0 0 421.191 97.441"
	 xml:space="preserve">
<g>
	<path fill="#004A7B" d="M123.942,30.977h13.146v10.271h-13.146v21.777c0,2.672,0.632,4.828,1.899,6.473
		c1.267,1.642,3.066,2.464,5.393,2.464c1.779,0,3.595-0.445,5.444-1.336l3.903,9.655c-1.028,0.822-2.552,1.541-4.571,2.158
		c-2.02,0.615-3.852,0.924-5.495,0.924c-6.232,0-11.093-1.574-14.586-4.725c-3.492-3.148-5.237-7.564-5.237-13.25v-24.14V30.977
		V20.626l13.25-5.175V30.977z"/>
	<path fill="#004A7B" d="M169.752,30.978c4.997,0,9.209,1.165,12.633,3.492c3.424,2.329,5.957,5.462,7.601,9.397
		c1.644,3.941,2.466,8.339,2.466,13.199v4.11h-33.588c0.683,3.492,2.172,6.164,4.468,8.012c2.295,1.849,5.803,2.773,10.527,2.773
		c2.739,0,5.204-0.375,7.397-1.129c2.19-0.754,4.553-1.85,7.086-3.287l3.904,9.654c-2.533,1.987-5.274,3.512-8.218,4.571
		c-2.944,1.06-6.437,1.591-10.476,1.591c-9.45,0-16.624-2.31-21.519-6.933c-4.896-4.621-7.344-11.006-7.344-19.156
		c0-5.272,1.01-9.894,3.03-13.865c2.019-3.972,4.912-7.037,8.679-9.194C160.164,32.056,164.616,30.978,169.752,30.978
		 M169.443,42.378c-2.738,0-5.033,0.84-6.882,2.518c-1.848,1.677-3.048,4.126-3.594,7.343h20.85
		c-0.685-3.287-1.899-5.751-3.645-7.395C174.425,43.2,172.182,42.378,169.443,42.378"/>
	<rect x="201.696" y="20.634" fill="#004A7B" width="13.251" height="61.494"/>
	<path fill="#004A7B" d="M249.25,30.978c5,0,9.209,1.165,12.632,3.492c3.426,2.329,5.959,5.462,7.602,9.397
		c1.644,3.941,2.467,8.339,2.467,13.199v4.11h-33.59c0.684,3.492,2.176,6.164,4.471,8.012c2.293,1.849,5.802,2.773,10.527,2.773
		c2.738,0,5.203-0.375,7.395-1.129c2.191-0.754,4.554-1.85,7.087-3.287l3.905,9.654c-2.534,1.987-5.276,3.512-8.217,4.571
		c-2.945,1.06-6.438,1.591-10.479,1.591c-9.449,0-16.623-2.31-21.517-6.933c-4.897-4.621-7.346-11.006-7.346-19.156
		c0-5.272,1.012-9.894,3.031-13.865c2.02-3.972,4.912-7.037,8.68-9.194C239.664,32.056,244.115,30.978,249.25,30.978
		 M248.941,42.378c-2.738,0-5.031,0.84-6.881,2.518c-1.849,1.677-3.049,4.126-3.596,7.343h20.852
		c-0.684-3.287-1.898-5.751-3.646-7.395C253.925,43.2,251.679,42.378,248.941,42.378"/>
	<path fill="#004A7B" d="M303.586,30.977c2.328,0,5.203,0.479,8.629,1.437c3.422,0.96,6.299,2.227,8.627,3.801l-3.799,9.553
		c-2.605-1.163-4.932-2.02-6.986-2.568c-2.053-0.547-4.178-0.823-6.367-0.823c-3.698,0-6.764,1.405-9.196,4.213
		c-2.429,2.808-3.644,6.367-3.644,10.681s1.197,7.844,3.595,10.582c2.397,2.738,5.477,4.107,9.245,4.107
		c2.189,0,4.314-0.273,6.367-0.822c2.054-0.547,4.381-1.402,6.986-2.566l3.799,9.654c-2.123,1.643-4.897,2.91-8.32,3.801
		c-3.422,0.888-6.403,1.334-8.936,1.334c-5.342,0-10.014-1.063-14.02-3.184c-4.007-2.121-7.087-5.15-9.246-9.09
		c-2.156-3.937-3.234-8.541-3.234-13.816c0-5.272,1.078-9.894,3.234-13.864c2.159-3.973,5.239-7.037,9.246-9.195
		C293.572,32.056,298.244,30.977,303.586,30.977"/>
	<path fill="#004A7B" d="M347.957,43.304c-2.26,0-4.76,0.324-7.496,0.974c-2.742,0.652-5.07,1.422-6.986,2.313l-3.596-11.095
		c1.781-1.163,4.623-2.208,8.527-3.133c3.903-0.924,7.018-1.385,9.346-1.385c3.971,0,7.602,0.789,10.889,2.362
		c3.285,1.576,5.904,3.766,7.857,6.574c1.951,2.809,2.928,5.957,2.928,9.449v32.766h-10.99v-5.342
		c-4.178,4.383-8.563,6.574-13.149,6.574c-5.957,0-10.443-1.453-13.455-4.363c-3.015-2.912-4.519-6.832-4.519-11.762
		c0-5.066,1.711-8.988,5.134-11.761c3.424-2.774,8.014-4.161,13.764-4.161h9.758c-0.068-2.532-0.805-4.502-2.207-5.906
		C352.356,44.007,350.422,43.304,347.957,43.304 M346.006,60.25c-2.193,0-3.955,0.686-5.291,2.055
		c-1.334,1.371-2.002,3.015-2.002,4.931c0,1.508,0.6,2.809,1.797,3.903c1.197,1.095,2.723,1.642,4.572,1.642
		c3.969,0,7.635-1.642,10.99-4.927V60.25H346.006z"/>
	<rect x="381.34" y="20.634" fill="#004A7B" width="13.25" height="61.494"/>
	<rect x="407.939" y="10.275" fill="#004A7B" width="13.252" height="71.853"/>
	<g>
		<g>
			<defs>
				<rect id="SVGID_1_" x="2.632" y="0.136" width="70.848" height="95.718"/>
			</defs>
			<clipPath id="SVGID_2_">
				<use xlink:href="#SVGID_1_"  overflow="visible"/>
			</clipPath>
			<g clip-path="url(#SVGID_2_)">
				<defs>
					<path id="SVGID_3_" d="M45.081,0.135C25.313,1.594,8.827,14.85,2.632,32.891C5.419,60.8,18.284,73.664,30.747,82.242
						C43.209,90.818,73.48,95.853,73.48,95.853c-4.731-0.887-22.693-5.51-34.329-18.107c-3.992-4.325-6.839-9.006-8.802-13.676
						c0.001,0.004,0.002,0.008,0.002,0.008s-0.001-0.004-0.002-0.008c-1.077-2.555-1.886-5.108-2.475-7.596
						c-1.506-5.566-3.186-13.848-3.425-23.684C24.023,15.368,33.871,3.059,45.081,0.135"/>
				</defs>
				<clipPath id="SVGID_4_">
					<use xlink:href="#SVGID_3_"  overflow="visible"/>
				</clipPath>
				
					<linearGradient id="SVGID_5_" gradientUnits="userSpaceOnUse" x1="-5.8929" y1="101.902" x2="-4.8929" y2="101.902" gradientTransform="matrix(3.1958 -46.2242 -46.2242 -3.1958 4765.8696 120.8962)">
					<stop  offset="0" style="stop-color:#6F0413"/>
					<stop  offset="1" style="stop-color:#C70725"/>
				</linearGradient>
				<polygon clip-path="url(#SVGID_4_)" fill="url(#SVGID_5_)" points="-3.954,95.398 2.969,-4.74 80.066,0.591 73.143,100.728 				
					"/>
			</g>
		</g>
	</g>
	<g>
		<g>
			<defs>
				<rect id="SVGID_6_" x="0" y="32.892" width="74.272" height="64.55"/>
			</defs>
			<clipPath id="SVGID_7_">
				<use xlink:href="#SVGID_6_"  overflow="visible"/>
			</clipPath>
			<g clip-path="url(#SVGID_7_)">
				<defs>
					<path id="SVGID_8_" d="M2.632,32.891C0.927,37.853,0,43.179,0,48.72c0,26.908,21.813,48.721,48.719,48.721H73.48
						c0.812,0,1.275-1.35,0-1.588c0,0-30.271-5.035-42.733-13.611C18.284,73.664,5.419,60.8,2.632,32.891"/>
				</defs>
				<clipPath id="SVGID_9_">
					<use xlink:href="#SVGID_8_"  overflow="visible"/>
				</clipPath>
				
					<linearGradient id="SVGID_10_" gradientUnits="userSpaceOnUse" x1="-5.7428" y1="101.8195" x2="-4.7428" y2="101.8195" gradientTransform="matrix(4.8887 -21.8468 -21.8468 -4.8887 2282.7307 469.4255)">
					<stop  offset="0" style="stop-color:#850419"/>
					<stop  offset="1" style="stop-color:#C70725"/>
				</linearGradient>
				<polygon clip-path="url(#SVGID_9_)" fill="url(#SVGID_10_)" points="-13.756,94.363 3.565,16.961 88.511,35.97 71.19,113.372 
									"/>
			</g>
		</g>
	</g>
	<g>
		<g>
			<defs>
				<rect id="SVGID_11_" x="24.435" y="0" width="72.573" height="56.475"/>
			</defs>
			<clipPath id="SVGID_12_">
				<use xlink:href="#SVGID_11_"  overflow="visible"/>
			</clipPath>
			<g clip-path="url(#SVGID_12_)">
				<defs>
					<path id="SVGID_13_" d="M68.137,20.237c23.513,3.26,28.728,21.474,28.871,21.993C93.835,18.391,73.427,0,48.719,0
						c-1.223,0-2.436,0.046-3.638,0.135C33.871,3.059,24.023,15.368,24.449,32.79c0.239,9.836,1.919,18.118,3.425,23.684
						c-1.787-7.548-1.532-14.495-0.438-19.133c1.918-8.136,5.439-11.82,9.45-14.446c2.656-1.74,4.85-2.532,6.6-2.81
						C43.7,20.049,54.392,18.332,68.137,20.237"/>
				</defs>
				<clipPath id="SVGID_14_">
					<use xlink:href="#SVGID_13_"  overflow="visible"/>
				</clipPath>
				
					<linearGradient id="SVGID_15_" gradientUnits="userSpaceOnUse" x1="-5.9173" y1="102.0628" x2="-4.9173" y2="102.0628" gradientTransform="matrix(72.5729 0 0 -72.5729 453.8729 7435.2324)">
					<stop  offset="0" style="stop-color:#720414"/>
					<stop  offset="1" style="stop-color:#C50725"/>
				</linearGradient>
				<rect x="24.023" y="0" clip-path="url(#SVGID_14_)" fill="url(#SVGID_15_)" width="72.985" height="56.474"/>
			</g>
		</g>
	</g>
	<g>
		<g>
			<defs>
				<rect id="SVGID_16_" x="43.486" y="19.341" width="53.954" height="61.659"/>
			</defs>
			<clipPath id="SVGID_17_">
				<use xlink:href="#SVGID_16_"  overflow="visible"/>
			</clipPath>
			<g clip-path="url(#SVGID_17_)">
				<defs>
					<path id="SVGID_18_" d="M97.008,42.23c-0.143-0.519-5.358-18.733-28.871-21.993c-13.745-1.905-24.437-0.188-24.651-0.152
						c1.713-0.272,3.001-0.051,3.886,0.263c2.596,0.899,5.286,3.553,8.076,8.242c1.525,2.563,2.972,5.803,3.667,8.886
						c0.05,0.218,0.095,0.436,0.136,0.652c0.187,0.977,0.297,1.933,0.297,2.838c0,0.945-0.112,1.836-0.364,2.642
						c-0.724,2.312-3.003,3.876-5.054,5.113c-3.664,2.209-5.914,4.849-5.248,9.657c0.049,0.358,0.119,0.733,0.207,1.114
						c0.855,3.726,3.384,8.361,5.223,10.51c3.8,4.439,6.449,6.675,10.851,9.062c8.236,4.463,21.958,1.115,27.418-9.117
						c3.355-6.291,4.859-13.615,4.859-21.227C97.44,46.52,97.292,44.354,97.008,42.23"/>
				</defs>
				<linearGradient id="SVGID_19_" gradientUnits="userSpaceOnUse" x1="43.486" y1="50.1699" x2="97.44" y2="50.1699">
					<stop  offset="0" style="stop-color:#6F0413"/>
					<stop  offset="1" style="stop-color:#C70725"/>
				</linearGradient>
				<use xlink:href="#SVGID_18_"  overflow="visible" fill="url(#SVGID_19_)"/>
				<clipPath id="SVGID_20_">
					<use xlink:href="#SVGID_18_"  overflow="visible"/>
				</clipPath>
				
					<linearGradient id="SVGID_21_" gradientUnits="userSpaceOnUse" x1="-6.0826" y1="102.1021" x2="-5.0826" y2="102.1021" gradientTransform="matrix(3.3611 50.1105 50.1105 -3.3611 -5027.6152 667.1326)">
					<stop  offset="0" style="stop-color:#6F0413"/>
					<stop  offset="1" style="stop-color:#C70725"/>
				</linearGradient>
				<polygon clip-path="url(#SVGID_20_)" fill="url(#SVGID_21_)" points="97.198,14.73 101.793,83.235 43.728,87.13 39.133,18.624 
									"/>
			</g>
		</g>
	</g>
</g>
<g>
</g>
<g>
</g>
<g>
</g>
<g>
</g>
<g>
</g>
<g>
</g>
<g>
</g>
<g>
</g>
<g>
</g>
<g>
</g>
<g>
</g>
<g>
</g>
<g>
</g>
<g>
</g>
<g>
</g>
</svg>
